<?xml version="1.0" encoding="utf-8"?>
<!-- Generator: Adobe Illustrator 16.0.4, SVG Export Plug-In . SVG Version: 6.00 Build 0)  -->
<!DOCTYPE svg PUBLIC "-//W3C//DTD SVG 1.1//EN" "http://www.w3.org/Graphics/SVG/1.1/DTD/svg11.dtd">
<svg version="1.1" id="Layer_1" xmlns="http://www.w3.org/2000/svg" xmlns:xlink="http://www.w3.org/1999/xlink" x="0px" y="0px"
	 width="28px" height="28px" viewBox="87.832 98.155 28 28" enable-background="new 87.832 98.155 28 28" xml:space="preserve">
<g transform="translate(0.000000,234.000000) scale(0.100000,-0.100000)">
	<path d="M1090.049,1358.066l-24.766-0.669l0.498-10.371l0.498-10.371l25.605-0.503c14.219-0.166,25.43-1.006,25.098-1.841
		s-16.23-17.734-35.635-37.642c-19.248-19.907-35.312-36.807-35.645-37.476c-0.166-0.669,3.008-4.517,7.197-8.701l7.529-7.358
		l36.143,37.139c19.912,20.41,36.807,37.144,37.646,37.144s1.67-11.88,1.846-26.27l0.498-26.431l8.369-0.503
		c4.678-0.166,9.199,0.166,10.205,0.835c1.338,1.006,2.178,16.064,2.51,47.349l0.664,46.006h-21.748
		C1124.678,1358.569,1103.594,1358.237,1090.049,1358.066z"/>
	<path d="M878.877,1327.119c-0.498-2.178-0.669-58.721-0.498-125.977l0.498-122.129l120.479-0.498
		c66.26-0.176,122.148,0,124.326,0.498l3.682,0.84l-0.342,77.451l-0.498,77.295l-10.381,0.503l-10.537,0.503v-64.409
		c0-35.298-0.498-65.415-1.006-66.919c-1.006-2.344-11.543-2.676-102.065-2.676H901.465v102.886v102.891h63.418
		c34.971,0,64.59,0.503,66.094,1.001c3.853,1.509,3.853,19.912,0,21.416c-1.504,0.503-35.972,1.006-76.968,1.006h-74.292
		L878.877,1327.119z"/>
</g>
</svg>
