<?xml version="1.0" encoding="utf-8"?>
<!-- Generator: Adobe Illustrator 16.0.4, SVG Export Plug-In . SVG Version: 6.00 Build 0)  -->
<!DOCTYPE svg PUBLIC "-//W3C//DTD SVG 1.1//EN" "http://www.w3.org/Graphics/SVG/1.1/DTD/svg11.dtd">
<svg version="1.1" id="Layer_1" xmlns="http://www.w3.org/2000/svg" xmlns:xlink="http://www.w3.org/1999/xlink" x="0px" y="0px"
	 width="384px" height="384px" viewBox="64 64 384 384" enable-background="new 64 64 384 384" xml:space="preserve">
<path fill="#443B2E" d="M344.5,298c15-23.6,23.8-51.6,23.8-81.7c0-84.1-68.1-152.3-152.1-152.3C132.1,64,64,132.2,64,216.3
	c0,84.101,68.1,152.3,152.1,152.3c30.5,0,58.9-9,82.7-24.399l6.9-4.8L414.3,448l33.7-34.3L339.5,305.1L344.5,298z M301.4,131.2
	c22.699,22.7,35.199,52.9,35.199,85c0,32.1-12.5,62.3-35.199,85c-22.7,22.7-52.9,35.2-85,35.2s-62.3-12.5-85-35.2
	c-22.7-22.7-35.2-52.9-35.2-85c0-32.1,12.5-62.3,35.2-85c22.7-22.7,52.9-35.2,85-35.2S278.7,108.5,301.4,131.2z"/>
</svg>
