<?xml version="1.0" encoding="utf-8"?>
<!-- Generator: Adobe Illustrator 16.0.4, SVG Export Plug-In . SVG Version: 6.00 Build 0)  -->
<!DOCTYPE svg PUBLIC "-//W3C//DTD SVG 1.1//EN" "http://www.w3.org/Graphics/SVG/1.1/DTD/svg11.dtd">
<svg version="1.1" id="Layer_1" xmlns="http://www.w3.org/2000/svg" xmlns:xlink="http://www.w3.org/1999/xlink" x="0px" y="0px"
	 width="60px" height="60px" viewBox="0 0 60 60" enable-background="new 0 0 60 60" xml:space="preserve">
<title></title>
<path fill="#443B2E" d="M30,10c1.104,0,2-0.897,2-2s-0.896-2-2-2c-1.103,0-2,0.897-2,2S28.897,10,30,10z M24,8
	c0,2.096,1.833,5.104,2.801,6.401L30,18.399l3.219-4.024C34.182,13.273,36,10.067,36,8c0-3.309-2.691-6-6-6C26.691,2,24,4.691,24,8z
	 M25.219,15.625C24.871,15.16,22,11.221,22,8c0-4.411,3.589-8,8-8s8,3.589,8,8c0,2.755-2.15,6.405-3.248,7.658l-3.971,4.967
	c-0.345,0.431-0.975,0.501-1.406,0.156c-0.058-0.046-0.11-0.099-0.156-0.156L25.219,15.625z M41,55c0.553,0,1-0.447,1-1V39.754
	l13.275-3.792c0.531-0.151,0.838-0.706,0.687-1.237s-0.706-0.838-1.237-0.687l-14,4C40.296,38.161,40,38.554,40,39v15
	C40,54.553,40.447,55,41,55z M37,54c0.553,0,1-0.447,1-1V39c0-0.43-0.273-0.811-0.682-0.947l-14-4.719
	c-0.527-0.164-1.088,0.129-1.252,0.656c-0.16,0.511,0.111,1.057,0.615,1.238L36,39.718V53C36,53.553,36.447,54,37,54z
	 M14.713,27.042l-10,3c-0.529,0.159-0.83,0.716-0.671,1.245s0.716,0.83,1.245,0.671l0,0l10-3c0.529-0.159,0.83-0.716,0.671-1.245
	C15.799,27.184,15.242,26.883,14.713,27.042z M19,8c-0.552,0-1,0.448-1,1v18c0,0.431,0.275,0.812,0.684,0.948l18,6
	c0.523,0.175,1.09-0.107,1.265-0.631C37.982,33.215,38,33.107,38,33V18c0-0.552-0.447-1-1-1s-1,0.448-1,1v13.611l-16-5.333V9
	C20,8.448,19.552,8,19,8z M58.02,8.907c-0.982-0.798-2.123-1.109-3.295-0.869l-14,4C40.296,12.161,40,12.554,40,13v20
	c0.002,0.554,0.453,1.002,1.006,1c0.092-0.001,0.182-0.014,0.27-0.038l14-4c0.531-0.152,0.838-0.706,0.687-1.237
	s-0.706-0.839-1.237-0.687L42,31.674v-17.92l13.204-3.775c0.667-0.139,1.26,0.242,1.553,0.48C57.512,11.073,58,12.07,58,13v38
	c0,1.314-0.997,2.229-3.275,3.038l-13.688,3.911L20,50.3V33c-0.002-0.554-0.453-1.002-1.006-1c-0.091,0.001-0.181,0.014-0.269,0.038
	l-14,4c-0.531,0.151-0.839,0.706-0.687,1.237s0.706,0.838,1.237,0.687L18,34.326V51c0,0.421,0.263,0.796,0.658,0.939l22,8
	c0.197,0.072,0.414,0.08,0.617,0.022l14.059-4.021C56.609,55.49,60,54.288,60,51V13C60,11.47,59.241,9.901,58.02,8.907z
	 M15.958,51.869c0.151,0.531-0.156,1.084-0.687,1.236l-9.996,2.856C4.957,56.053,4.627,56.1,4.296,56.1
	c-0.782,0-1.547-0.264-2.224-0.775C0.813,54.372,0,52.675,0,51V13c0-3.288,3.39-4.49,4.666-4.942l14.059-4.02
	c0.531-0.152,1.085,0.156,1.237,0.687s-0.156,1.085-0.687,1.237l-14,4C2.997,10.771,2,11.686,2,13v38
	c0,1.037,0.525,2.16,1.278,2.729c0.459,0.348,0.946,0.451,1.45,0.31l9.993-2.856C15.252,51.032,15.805,51.339,15.958,51.869z"/>
</svg>
