<svg xmlns="http://www.w3.org/2000/svg" width="28" height="28" viewBox="87.832 98.155 28 28"><path d="M109.005 98.193l-2.477.067.05 1.037.05 1.037 2.56.05c1.422.017 2.543.101 2.51.185s-1.623 1.773-3.563 3.764c-1.925 1.99-3.531 3.68-3.565 3.748-.016.067.301.451.72.87l.753.736 3.614-3.714c1.991-2.041 3.68-3.715 3.765-3.715s.167 1.188.184 2.627l.05 2.643.837.05c.468.017.92-.016 1.02-.083.134-.1.218-1.606.252-4.735l.066-4.6h-2.175c-1.188-.017-3.297.016-4.651.033z"/><path d="M87.888 101.288c-.05.218-.067 5.872-.05 12.598l.05 12.213 12.048.05c6.626.017 12.214 0 12.432-.05l.368-.084-.034-7.745-.05-7.73-1.038-.05-1.053-.05v6.44c0 3.53-.05 6.542-.101 6.692-.1.235-1.154.268-10.207.268H90.147v-20.578h6.341c3.497 0 6.46-.05 6.61-.1.385-.15.385-1.991 0-2.141-.15-.05-3.597-.101-7.697-.101h-7.43l-.083.368z"/></svg>