<svg xmlns="http://www.w3.org/2000/svg" width="60" height="60" viewBox="0 0 60 60"><title/><path fill="#443B2E" d="M30 10c1.104 0 2-.897 2-2s-.896-2-2-2c-1.103 0-2 .897-2 2s.897 2 2 2zm-6-2c0 2.096 1.833 5.104 2.801 6.401L30 18.399l3.219-4.024C34.182 13.273 36 10.067 36 8c0-3.309-2.691-6-6-6s-6 2.691-6 6zm1.219 7.625C24.871 15.16 22 11.221 22 8c0-4.411 3.589-8 8-8s8 3.589 8 8c0 2.755-2.15 6.405-3.248 7.658l-3.971 4.967a1 1 0 0 1-1.562 0l-4-5zM41 55a1 1 0 0 0 1-1V39.754l13.275-3.792a1.001 1.001 0 0 0-.55-1.924l-14 4A1.001 1.001 0 0 0 40 39v15a1 1 0 0 0 1 1zm-4-1a1 1 0 0 0 1-1V39a.996.996 0 0 0-.682-.947l-14-4.719a1 1 0 0 0-.637 1.894L36 39.718V53a1 1 0 0 0 1 1zM14.713 27.042l-10 3a1 1 0 1 0 .574 1.916l10-3a1 1 0 1 0-.574-1.916zM19 8a1 1 0 0 0-1 1v18c0 .431.275.812.684.948l18 6A1 1 0 0 0 38 33V18a1 1 0 1 0-2 0v13.611l-16-5.333V9a1 1 0 0 0-1-1zm39.02.907c-.982-.798-2.123-1.109-3.295-.869l-14 4A1.001 1.001 0 0 0 40 13v20a1.004 1.004 0 0 0 1.276.962l14-4a1.002 1.002 0 0 0-.55-1.924L42 31.674v-17.92l13.204-3.775c.667-.139 1.26.242 1.553.48C57.512 11.073 58 12.07 58 13v38c0 1.314-.997 2.229-3.275 3.038l-13.688 3.911L20 50.3V33a1.004 1.004 0 0 0-1.275-.962l-14 4a1 1 0 1 0 .55 1.924L18 34.326V51c0 .421.263.796.658.939l22 8a1 1 0 0 0 .617.022l14.059-4.021C56.609 55.49 60 54.288 60 51V13c0-1.53-.759-3.099-1.98-4.093zM15.958 51.869a1 1 0 0 1-.687 1.236l-9.996 2.856a3.525 3.525 0 0 1-.979.139c-.782 0-1.547-.264-2.224-.775C.813 54.372 0 52.675 0 51V13c0-3.288 3.39-4.49 4.666-4.942l14.059-4.02a1 1 0 0 1 .55 1.924l-14 4C2.997 10.771 2 11.686 2 13v38c0 1.037.525 2.16 1.278 2.729.459.348.946.451 1.45.31l9.993-2.856a1.002 1.002 0 0 1 1.237.686z"/></svg>